<mxfile host="app.diagrams.net" modified="2024-03-04T09:52:27.225Z" agent="Mozilla/5.0 (Windows NT 10.0; Win64; x64; rv:124.0) Gecko/20100101 Firefox/124.0" etag="Sp3sx6okvMi8VcX7BPO5" version="23.1.1" type="device">
  <diagram name="Page-1" id="xn2FyQzohfk560pKKrrB">
    <mxGraphModel dx="1509" dy="863" grid="1" gridSize="10" guides="1" tooltips="1" connect="1" arrows="1" fold="1" page="1" pageScale="1" pageWidth="850" pageHeight="1100" math="0" shadow="0">
      <root>
        <mxCell id="0" />
        <mxCell id="1" parent="0" />
        <mxCell id="Kj7rIgAF8VZYllp7fPQ8-4" value="" style="rounded=1;whiteSpace=wrap;html=1;fillColor=none;strokeColor=default;strokeWidth=3;" vertex="1" parent="1">
          <mxGeometry x="40" y="320" width="380" height="180" as="geometry" />
        </mxCell>
        <mxCell id="Kj7rIgAF8VZYllp7fPQ8-19" style="edgeStyle=orthogonalEdgeStyle;rounded=0;orthogonalLoop=1;jettySize=auto;html=1;" edge="1" parent="1" source="Kj7rIgAF8VZYllp7fPQ8-1" target="Kj7rIgAF8VZYllp7fPQ8-17">
          <mxGeometry relative="1" as="geometry" />
        </mxCell>
        <mxCell id="Kj7rIgAF8VZYllp7fPQ8-1" value="&lt;b&gt;&lt;font face=&quot;Verdana&quot;&gt;192.168.1.208&lt;br&gt;&lt;font style=&quot;font-size: 12px;&quot; color=&quot;#006600&quot;&gt;DEVELOPMENT&lt;/font&gt;&lt;/font&gt;&lt;/b&gt;" style="sketch=0;pointerEvents=1;shadow=0;dashed=0;html=1;strokeColor=none;fillColor=#505050;labelPosition=center;verticalLabelPosition=bottom;verticalAlign=top;outlineConnect=0;align=center;shape=mxgraph.office.servers.server_generic;" vertex="1" parent="1">
          <mxGeometry x="110" y="360" width="32.75" height="60" as="geometry" />
        </mxCell>
        <mxCell id="Kj7rIgAF8VZYllp7fPQ8-18" style="edgeStyle=orthogonalEdgeStyle;rounded=0;orthogonalLoop=1;jettySize=auto;html=1;" edge="1" parent="1" source="Kj7rIgAF8VZYllp7fPQ8-2" target="Kj7rIgAF8VZYllp7fPQ8-17">
          <mxGeometry relative="1" as="geometry" />
        </mxCell>
        <mxCell id="Kj7rIgAF8VZYllp7fPQ8-29" value="SSH" style="edgeLabel;html=1;align=center;verticalAlign=middle;resizable=0;points=[];" vertex="1" connectable="0" parent="Kj7rIgAF8VZYllp7fPQ8-18">
          <mxGeometry x="0.5492" y="1" relative="1" as="geometry">
            <mxPoint as="offset" />
          </mxGeometry>
        </mxCell>
        <mxCell id="Kj7rIgAF8VZYllp7fPQ8-2" value="&lt;b&gt;&lt;font face=&quot;Verdana&quot;&gt;192.168.1.206&lt;font color=&quot;#006600&quot;&gt;&lt;br&gt;PRE-PRODUCCIÓN&lt;br&gt;&lt;/font&gt;&lt;/font&gt;&lt;/b&gt;" style="sketch=0;pointerEvents=1;shadow=0;dashed=0;html=1;strokeColor=none;fillColor=#505050;labelPosition=center;verticalLabelPosition=bottom;verticalAlign=top;outlineConnect=0;align=center;shape=mxgraph.office.servers.server_generic;" vertex="1" parent="1">
          <mxGeometry x="300" y="360" width="32.75" height="60" as="geometry" />
        </mxCell>
        <mxCell id="Kj7rIgAF8VZYllp7fPQ8-3" value="&lt;font face=&quot;Verdana&quot;&gt;&lt;b&gt;x.x.x.x&lt;/b&gt;&lt;font color=&quot;#006600&quot;&gt;&lt;br&gt;&lt;b&gt;PRODUCCIÓN&lt;br&gt;&lt;/b&gt;&lt;/font&gt;&lt;/font&gt;" style="sketch=0;pointerEvents=1;shadow=0;dashed=0;html=1;strokeColor=none;fillColor=#505050;labelPosition=center;verticalLabelPosition=bottom;verticalAlign=top;outlineConnect=0;align=center;shape=mxgraph.office.servers.server_generic;" vertex="1" parent="1">
          <mxGeometry x="550" y="360" width="32.75" height="60" as="geometry" />
        </mxCell>
        <mxCell id="Kj7rIgAF8VZYllp7fPQ8-5" value="EMAS" style="text;html=1;align=center;verticalAlign=middle;resizable=0;points=[];autosize=1;strokeColor=none;fillColor=none;fontStyle=1;fontSize=20;" vertex="1" parent="1">
          <mxGeometry x="40" y="500" width="80" height="40" as="geometry" />
        </mxCell>
        <mxCell id="Kj7rIgAF8VZYllp7fPQ8-11" style="edgeStyle=orthogonalEdgeStyle;rounded=0;orthogonalLoop=1;jettySize=auto;html=1;" edge="1" parent="1" source="Kj7rIgAF8VZYllp7fPQ8-7">
          <mxGeometry relative="1" as="geometry">
            <mxPoint x="660" y="140" as="targetPoint" />
          </mxGeometry>
        </mxCell>
        <mxCell id="Kj7rIgAF8VZYllp7fPQ8-20" value="HTTPS" style="edgeLabel;html=1;align=center;verticalAlign=middle;resizable=0;points=[];" vertex="1" connectable="0" parent="Kj7rIgAF8VZYllp7fPQ8-11">
          <mxGeometry x="-0.0873" y="1" relative="1" as="geometry">
            <mxPoint as="offset" />
          </mxGeometry>
        </mxCell>
        <mxCell id="Kj7rIgAF8VZYllp7fPQ8-7" value="&lt;font color=&quot;#ff8000&quot; style=&quot;font-size: 25px;&quot;&gt;CLOUDFLARE&lt;/font&gt;&lt;br&gt;&lt;font color=&quot;#3399ff&quot; style=&quot;font-size: 15px;&quot;&gt;x.emas-solutions.es&lt;/font&gt;&lt;font color=&quot;#3399ff&quot; style=&quot;font-size: 15px;&quot;&gt;&lt;br&gt;&lt;/font&gt;" style="ellipse;shape=cloud;whiteSpace=wrap;html=1;fillColor=#fad7ac;strokeColor=#b46504;" vertex="1" parent="1">
          <mxGeometry x="270" y="60" width="260" height="160" as="geometry" />
        </mxCell>
        <mxCell id="Kj7rIgAF8VZYllp7fPQ8-8" style="edgeStyle=orthogonalEdgeStyle;rounded=0;orthogonalLoop=1;jettySize=auto;html=1;entryX=0.55;entryY=0.95;entryDx=0;entryDy=0;entryPerimeter=0;" edge="1" parent="1" source="Kj7rIgAF8VZYllp7fPQ8-2" target="Kj7rIgAF8VZYllp7fPQ8-7">
          <mxGeometry relative="1" as="geometry">
            <Array as="points">
              <mxPoint x="316" y="270" />
              <mxPoint x="413" y="270" />
            </Array>
          </mxGeometry>
        </mxCell>
        <mxCell id="Kj7rIgAF8VZYllp7fPQ8-27" value="HTTPS" style="edgeLabel;html=1;align=center;verticalAlign=middle;resizable=0;points=[];" vertex="1" connectable="0" parent="Kj7rIgAF8VZYllp7fPQ8-8">
          <mxGeometry x="-0.4813" y="3" relative="1" as="geometry">
            <mxPoint as="offset" />
          </mxGeometry>
        </mxCell>
        <mxCell id="Kj7rIgAF8VZYllp7fPQ8-9" style="edgeStyle=orthogonalEdgeStyle;rounded=0;orthogonalLoop=1;jettySize=auto;html=1;entryX=0.55;entryY=0.95;entryDx=0;entryDy=0;entryPerimeter=0;" edge="1" parent="1" source="Kj7rIgAF8VZYllp7fPQ8-1" target="Kj7rIgAF8VZYllp7fPQ8-7">
          <mxGeometry relative="1" as="geometry">
            <Array as="points">
              <mxPoint x="126" y="270" />
              <mxPoint x="413" y="270" />
            </Array>
          </mxGeometry>
        </mxCell>
        <mxCell id="Kj7rIgAF8VZYllp7fPQ8-21" value="HTTP" style="edgeLabel;html=1;align=center;verticalAlign=middle;resizable=0;points=[];" vertex="1" connectable="0" parent="Kj7rIgAF8VZYllp7fPQ8-9">
          <mxGeometry x="-0.071" y="-1" relative="1" as="geometry">
            <mxPoint x="-112" y="29" as="offset" />
          </mxGeometry>
        </mxCell>
        <mxCell id="Kj7rIgAF8VZYllp7fPQ8-10" style="edgeStyle=orthogonalEdgeStyle;rounded=0;orthogonalLoop=1;jettySize=auto;html=1;entryX=0.55;entryY=0.95;entryDx=0;entryDy=0;entryPerimeter=0;" edge="1" parent="1" source="Kj7rIgAF8VZYllp7fPQ8-3" target="Kj7rIgAF8VZYllp7fPQ8-7">
          <mxGeometry relative="1" as="geometry">
            <Array as="points">
              <mxPoint x="566" y="270" />
              <mxPoint x="413" y="270" />
            </Array>
          </mxGeometry>
        </mxCell>
        <mxCell id="Kj7rIgAF8VZYllp7fPQ8-28" value="HTTPS" style="edgeLabel;html=1;align=center;verticalAlign=middle;resizable=0;points=[];" vertex="1" connectable="0" parent="Kj7rIgAF8VZYllp7fPQ8-10">
          <mxGeometry x="-0.5617" y="2" relative="1" as="geometry">
            <mxPoint as="offset" />
          </mxGeometry>
        </mxCell>
        <mxCell id="Kj7rIgAF8VZYllp7fPQ8-12" value="&lt;b&gt;&lt;font color=&quot;#006600&quot;&gt;USUARIOS&lt;/font&gt;&lt;/b&gt;" style="sketch=0;pointerEvents=1;shadow=0;dashed=0;html=1;strokeColor=none;fillColor=#505050;labelPosition=center;verticalLabelPosition=bottom;verticalAlign=top;outlineConnect=0;align=center;shape=mxgraph.office.devices.lcd_monitor;" vertex="1" parent="1">
          <mxGeometry x="680" y="120" width="58" height="48" as="geometry" />
        </mxCell>
        <mxCell id="Kj7rIgAF8VZYllp7fPQ8-13" value="" style="rounded=1;whiteSpace=wrap;html=1;fillColor=none;strokeColor=default;strokeWidth=3;" vertex="1" parent="1">
          <mxGeometry x="470" y="320" width="180" height="180" as="geometry" />
        </mxCell>
        <mxCell id="Kj7rIgAF8VZYllp7fPQ8-16" value="CLIENTE" style="text;html=1;align=center;verticalAlign=middle;resizable=0;points=[];autosize=1;strokeColor=none;fillColor=none;fontStyle=1;fontSize=20;" vertex="1" parent="1">
          <mxGeometry x="450" y="500" width="110" height="40" as="geometry" />
        </mxCell>
        <mxCell id="Kj7rIgAF8VZYllp7fPQ8-17" value="&lt;font color=&quot;#006600&quot;&gt;&lt;b&gt;DEVELOPERS&lt;/b&gt;&lt;/font&gt;" style="sketch=0;pointerEvents=1;shadow=0;dashed=0;html=1;strokeColor=none;fillColor=#505050;labelPosition=center;verticalLabelPosition=bottom;verticalAlign=top;outlineConnect=0;align=center;shape=mxgraph.office.devices.lcd_monitor;" vertex="1" parent="1">
          <mxGeometry x="201" y="640" width="58" height="48" as="geometry" />
        </mxCell>
        <mxCell id="Kj7rIgAF8VZYllp7fPQ8-31" value="" style="endArrow=classicThin;dashed=1;html=1;dashPattern=1 3;strokeWidth=2;rounded=0;verticalAlign=middle;startArrow=none;startFill=0;endFill=1;" edge="1" parent="1" target="Kj7rIgAF8VZYllp7fPQ8-13">
          <mxGeometry width="50" height="50" relative="1" as="geometry">
            <mxPoint x="560" y="570" as="sourcePoint" />
            <mxPoint x="570" y="500" as="targetPoint" />
          </mxGeometry>
        </mxCell>
        <mxCell id="Kj7rIgAF8VZYllp7fPQ8-32" value="GITHUB DEPLOY" style="text;html=1;align=center;verticalAlign=middle;resizable=0;points=[];autosize=1;strokeColor=none;fillColor=none;fontStyle=1;fontSize=12;" vertex="1" parent="1">
          <mxGeometry x="505" y="570" width="110" height="30" as="geometry" />
        </mxCell>
      </root>
    </mxGraphModel>
  </diagram>
</mxfile>
